<svg width="166" height="44" viewBox="0 0 166 44" fill="none" xmlns="http://www.w3.org/2000/svg">
<path d="M18.2 31.26H33.25L25.76 8.44L18.2 31.26ZM37.38 44L34.58 35.39H16.87L14 44H0.97998L17.5 0.459999H34.09L50.68 44H37.38Z" fill="white"/>
<path d="M57.3497 0.459999H71.3497V44H57.3497V0.459999Z" fill="white"/>
<path d="M106.999 37.7V26.29C106.999 25.4033 106.859 24.82 106.579 24.54C106.346 24.26 105.763 24.12 104.829 24.12H86.5594C82.8727 24.12 81.0294 22.2767 81.0294 18.59V5.99C81.0294 2.30333 82.8727 0.459999 86.5594 0.459999H114.769C118.456 0.459999 120.299 2.30333 120.299 5.99V14.11H106.789V6.76C106.789 5.82667 106.649 5.24333 106.369 5.01C106.089 4.73 105.506 4.59 104.619 4.59H96.7094C95.776 4.59 95.1694 4.73 94.8894 5.01C94.656 5.24333 94.5394 5.82667 94.5394 6.76V17.82C94.5394 18.7533 94.656 19.36 94.8894 19.64C95.1694 19.8733 95.776 19.99 96.7094 19.99H114.979C118.666 19.99 120.509 21.8333 120.509 25.52V38.47C120.509 42.1567 118.666 44 114.979 44H86.7694C83.0827 44 81.2394 42.1567 81.2394 38.47V30.35H94.7494V37.7C94.7494 38.6333 94.8894 39.24 95.1694 39.52C95.4494 39.7533 96.0327 39.87 96.9194 39.87H104.829C105.763 39.87 106.346 39.7533 106.579 39.52C106.859 39.24 106.999 38.6333 106.999 37.7Z" fill="white"/>
<path d="M143.801 39.87H165.641V44H129.801V0.459999H164.731V4.59H143.801V19.64H161.861V23.77H143.801V39.87Z" fill="white"/>
</svg>
